<svg xmlns="http://www.w3.org/2000/svg" width="330" height="62.613" viewBox="0 0 330 62.613"><defs><style>.a{fill:#fff;}.a,.b,.c{opacity:0.75;}.b{fill:#003f7f;}.c{fill:#2aaeff;}.d{fill:#030ba6;}.e{fill:#25064c;}.f{fill:#518bff;}</style></defs><g transform="translate(-857 -26)"><g transform="translate(857 26)"><path class="a" d="M55.655,0H27.826L0,31.306,27.826,62.613H55.655L83.481,31.306Zm-13.9,46.958L27.826,31.306,41.752,15.651,55.666,31.306Z"/><path class="b" d="M130.965,31.306,103.139,0H75.31l27.829,31.306Z" transform="translate(-47.484)"/><path class="c" d="M0,31.306,27.826,0H55.655L27.826,31.306Z"/><path class="c" d="M75.31,116.036,103.139,84.73h27.826l-27.826,31.306Z" transform="translate(-47.484 -53.424)"/><path class="b" d="M55.655,116.036,27.826,84.73H0l27.826,31.306Z" transform="translate(0 -53.424)"/><path class="d" d="M285.5,25.911V10.43h5.343V58.382H285.5V55.426a13.732,13.732,0,0,1-9.385,3.695c-9.865,0-15.208-10-15.208-18.844,0-9.725,5.069-17.879,15.552-17.879A13.8,13.8,0,0,1,285.5,25.911Zm-18.5,14.317c0,6.44,3.015,13.7,10.482,13.7a10.638,10.638,0,0,0,8.014-3.905V31.461c-1.437-2.125-5.542-3.632-8.084-3.632C269.611,27.829,267.007,34.062,267.007,40.229Z" transform="translate(-164.508 -6.576)"/><path class="d" d="M371.942,22.668a3.492,3.492,0,0,1-3.492-3.426,3.529,3.529,0,0,1,7.053,0A3.554,3.554,0,0,1,371.942,22.668Zm2.742,39.117H369.2V26.573h5.479Z" transform="translate(-232.314 -9.98)"/><path class="d" d="M415.156,44.91l8.565,26.514,8.572-26.514h5.753L426.47,80.122h-5.491L409.61,44.91Z" transform="translate(-258.266 -28.317)"/><path class="e" d="M498.685,77.625a4.866,4.866,0,1,1,4.326-2.393A4.866,4.866,0,0,1,498.685,77.625Z" transform="translate(-311.446 -42.809)"/><path class="f" d="M561.191,47.688,558.6,52.121a12.281,12.281,0,0,0-8.358-3.769c-6.92,0-11.646,6.44-11.646,12.88,0,6.37,4.589,12.81,11.373,12.81a12.815,12.815,0,0,0,8.631-3.769l2.586,4.452a17.563,17.563,0,0,1-11.92,4.866c-10.205,0-16.372-8.772-16.372-18.293,0-9.8,6.3-18.289,16.579-18.289C553.521,43.028,558.453,44.673,561.191,47.688Z" transform="translate(-336.003 -27.119)"/><path class="f" d="M636.542,43.775v5.912a10.348,10.348,0,0,1,9.522-6.577,19.772,19.772,0,0,1,4.315.739L647.708,49.6a7.571,7.571,0,0,0-2.742-.547c-6.507,0-8.424,6.651-8.424,12.056V78.99H631V43.775Z" transform="translate(-397.856 -27.182)"/><path class="f" d="M719.977,75.063,717.918,79.5a7.356,7.356,0,0,1-6.507-4.249A14.835,14.835,0,0,1,701,79.5c-7.264,0-11.99-4.8-11.99-12.056A12.408,12.408,0,0,1,701,55.248a14.44,14.44,0,0,1,9.178,3.015c-.137-4.933-1.711-10.346-8.287-10.346a14.612,14.612,0,0,0-9.112,3.695l-1.925-4.083a16.837,16.837,0,0,1,11.454-4.659C723.331,42.87,710.314,75.207,719.977,75.063Zm-25.494-7.6c0,4.316,3.085,7.124,7.467,7.124a11.475,11.475,0,0,0,8.5-3.695l-.2-7.467c-1.988-2.058-4.522-3.015-8.291-3.015-3.832,0-7.464,3.155-7.464,7.061Z" transform="translate(-434.433 -27.03)"/><path class="f" d="M822.068,55.728a10.715,10.715,0,0,1-6.233,1.984c-6.917,0-9.729-6.78-9.729-12.74V26.75H790.832l-.07,30.346h-5.324V26.75H780.42V21.884h5.018c0-6.577,3.695-13.494,11.029-13.494a11.935,11.935,0,0,1,6.577,1.984l-1.781,3.839a7.656,7.656,0,0,0-3.906-.961c-4.862,0-6.507,4.522-6.44,8.631h15.208V12.225h5.413v9.658h10.346V26.75H811.538l.07,16.715c0,3.425.273,9.178,4.933,9.178a6.973,6.973,0,0,0,3.628-1.234Z" transform="translate(-492.068 -5.29)"/></g></g></svg>