<svg xmlns="http://www.w3.org/2000/svg" width="132.106" height="25.065" viewBox="0 0 132.106 25.065"><defs><style>.a,.b{fill:#fff;}.a{opacity:0.75;}</style></defs><path class="a" d="M22.28,0H11.139L0,12.533,11.139,25.065H22.28L33.419,12.533ZM16.714,18.8l-5.575-6.266,5.575-6.267,5.57,6.267Z"/><path class="a" d="M97.59,12.533,86.451,0H75.31L86.451,12.533Z" transform="translate(-64.171)"/><path class="a" d="M0,12.533,11.139,0H22.28L11.139,12.533Z"/><path class="a" d="M75.31,97.263,86.451,84.73H97.59L86.451,97.263Z" transform="translate(-64.171 -72.197)"/><path class="a" d="M22.28,97.263,11.139,84.73H0L11.139,97.263Z" transform="translate(0 -72.197)"/><path class="b" d="M270.755,16.628v-6.2h2.139v19.2h-2.139V28.443A5.5,5.5,0,0,1,267,29.922c-3.949,0-6.088-4-6.088-7.544,0-3.893,2.029-7.157,6.226-7.157A5.524,5.524,0,0,1,270.755,16.628Zm-7.4,5.732c0,2.578,1.207,5.485,4.2,5.485a4.258,4.258,0,0,0,3.208-1.563V18.849a4.563,4.563,0,0,0-3.236-1.454C264.393,17.4,263.351,19.89,263.351,22.359Z" transform="translate(-222.318 -8.887)"/><path class="b" d="M369.848,18.566a1.4,1.4,0,0,1-1.4-1.371,1.412,1.412,0,1,1,1.4,1.371Zm1.1,15.659h-2.194v-14.1h2.194Z" transform="translate(-313.952 -13.487)"/><path class="b" d="M411.83,44.91l3.429,10.614L418.69,44.91h2.3l-4.634,14.1h-2.2l-4.551-14.1Z" transform="translate(-349.024 -38.267)"/><path class="b" d="M495.847,71.79a1.948,1.948,0,1,1,1.732-.958A1.948,1.948,0,0,1,495.847,71.79Z" transform="translate(-420.891 -57.853)"/><path class="b" d="M544.226,44.883l-1.035,1.775a4.916,4.916,0,0,0-3.346-1.509c-2.77,0-4.662,2.578-4.662,5.156,0,2.55,1.837,5.128,4.553,5.128a5.13,5.13,0,0,0,3.455-1.509l1.035,1.782a7.031,7.031,0,0,1-4.772,1.948c-4.085,0-6.554-3.511-6.554-7.323,0-3.921,2.523-7.322,6.637-7.322A6.743,6.743,0,0,1,544.226,44.883Z" transform="translate(-454.078 -36.648)"/><path class="b" d="M633.219,43.376v2.367a4.143,4.143,0,0,1,3.812-2.633,7.916,7.916,0,0,1,1.728.3l-1.069,2.3a3.031,3.031,0,0,0-1.1-.219c-2.6,0-3.372,2.662-3.372,4.826v7.157H631v-14.1Z" transform="translate(-537.668 -36.734)"/><path class="b" d="M701.406,55.758l-.824,1.775a2.945,2.945,0,0,1-2.6-1.7,5.939,5.939,0,0,1-4.168,1.7,4.529,4.529,0,0,1-4.8-4.826,4.967,4.967,0,0,1,4.8-4.881,5.78,5.78,0,0,1,3.674,1.207c-.055-1.975-.685-4.142-3.318-4.142a5.849,5.849,0,0,0-3.648,1.479l-.771-1.634a6.74,6.74,0,0,1,4.585-1.865C702.75,42.87,697.539,55.815,701.406,55.758ZM691.2,52.714a2.773,2.773,0,0,0,2.989,2.852,4.594,4.594,0,0,0,3.4-1.479L697.51,51.1a4.25,4.25,0,0,0-3.319-1.207,2.987,2.987,0,0,0-2.988,2.827Z" transform="translate(-587.097 -36.529)"/><path class="b" d="M797.093,27.34a4.289,4.289,0,0,1-2.5.794c-2.769,0-3.895-2.714-3.895-5.1v-7.3h-6.115l-.028,12.148h-2.131V15.74H780.42V13.792h2.009c0-2.633,1.479-5.4,4.415-5.4a4.778,4.778,0,0,1,2.633.794l-.713,1.537a3.065,3.065,0,0,0-1.563-.385c-1.947,0-2.6,1.81-2.578,3.455h6.088V9.925h2.167v3.866h4.142V15.74h-4.142l.028,6.692c0,1.371.109,3.674,1.975,3.674a2.791,2.791,0,0,0,1.453-.494Z" transform="translate(-664.986 -7.149)"/></svg>